<svg width="128" height="82" viewBox="0 0 128 82" fill="none" xmlns="http://www.w3.org/2000/svg">
<g clip-path="url(#clip0_134_2)">
<path d="M30.1491 26.592V45.8539C30.1491 48.2549 29.3799 50.2145 27.8343 51.7327C26.2888 53.2509 24.2945 54.0067 21.8444 54.0067C18.8957 54.0067 16.6379 52.7493 15.0852 50.2279C14.1237 51.5856 13.0981 52.5554 11.9941 53.1372C10.8973 53.7191 9.53689 54.0067 7.92723 54.0067C5.37029 54.0067 3.40451 53.2509 2.04413 51.7327C0.68375 50.2145 0 48.0342 0 45.1851V26.592H8.46853V43.9946C8.46853 44.8573 8.53975 45.4258 8.68932 45.7C8.83889 45.9743 9.13091 46.1147 9.57962 46.1147C10.4129 46.1147 10.8332 45.4526 10.8332 44.135V26.5987H19.3017V44.0013C19.3017 44.8373 19.38 45.3991 19.5296 45.6867C19.6792 45.9743 19.9783 46.1147 20.427 46.1147C21.2604 46.1147 21.6806 45.4125 21.6806 44.0013V26.5987H30.1491V26.592Z" fill="white"/>
<path d="M43.76 26.592V53.3379H35.2915V26.592H43.76Z" fill="white"/>
<path d="M48.8668 26.592H57.3354V42.4831C57.3354 43.727 57.549 44.5497 57.9692 44.9644C58.3966 45.379 59.2299 45.5797 60.4834 45.5797H60.925V53.3379H58.6744C55.5832 53.3379 53.1759 52.4952 51.4522 50.8031C49.7286 49.111 48.8668 46.7635 48.8668 43.7605V26.5987V26.592Z" fill="white"/>
<path d="M77.2922 25.9232C81.3235 25.9232 84.785 27.301 87.6767 30.0565C90.5612 32.812 92.0071 36.1092 92.0071 39.9482C92.0071 43.7872 90.5541 47.1714 87.6482 49.9002C84.7422 52.6289 81.2095 53.9933 77.0501 53.9933C72.8906 53.9933 69.3935 52.6223 66.4733 49.8801C63.5531 47.138 62.093 43.8274 62.093 39.9482C62.093 36.0691 63.5674 32.7117 66.5089 29.9963C69.4505 27.2809 73.0473 25.9232 77.3065 25.9232H77.2922ZM77.0358 33.8018C75.2979 33.8018 73.8165 34.4038 72.5914 35.6076C71.3664 36.8115 70.7538 38.2628 70.7538 39.9549C70.7538 41.647 71.3664 43.105 72.5986 44.3022C73.8307 45.5061 75.3051 46.108 77.0358 46.108C78.7666 46.108 80.2765 45.5128 81.4873 44.3156C82.7052 43.1184 83.3106 41.6671 83.3106 39.9549C83.3106 38.2428 82.7052 36.7914 81.4873 35.5943C80.2694 34.3971 78.7879 33.8018 77.0358 33.8018Z" fill="white"/>
<path d="M77.0359 13.0017C80.8593 13.0017 83.9589 10.0912 83.9589 6.50087C83.9589 2.91054 80.8593 0 77.0359 0C73.2124 0 70.1129 2.91054 70.1129 6.50087C70.1129 10.0912 73.2124 13.0017 77.0359 13.0017Z" fill="#77B82A"/>
<path d="M88.4958 25.328C88.4958 26.2978 88.3604 27.2408 88.0969 28.137C87.9616 27.9965 87.8191 27.8561 87.6767 27.7156C84.785 24.9601 81.3235 23.5824 77.2922 23.5824C73.033 23.5824 69.4362 24.9401 66.4947 27.6555C66.3166 27.8227 66.1457 27.9832 65.9819 28.1504C65.7183 27.2542 65.583 26.3044 65.583 25.328C65.583 19.3822 70.7111 14.5668 77.0429 14.5668C83.3748 14.5668 88.4958 19.3822 88.4958 25.328Z" fill="#3B8533"/>
</g>
<mask id="path-7-outside-1_134_2" maskUnits="userSpaceOnUse" x="34" y="46" width="59" height="24" fill="black">
<rect fill="white" x="34" y="46" width="59" height="24"/>
<path d="M49.4219 58.1836L54.4023 58.3125C54.0742 60.8906 53.1797 62.8828 51.7188 64.2891C50.2656 65.6953 48.3672 66.3984 46.0234 66.3984C43.6406 66.3984 41.6445 65.6016 40.0352 64.0078C38.4336 62.4062 37.6328 60.4219 37.6328 58.0547C37.6328 55.6719 38.4492 53.668 40.082 52.043C41.7227 50.418 43.7422 49.6055 46.1406 49.6055C48.5 49.6055 50.4688 50.4023 52.0469 51.9961C53.1406 53.0977 53.9141 54.6328 54.3672 56.6016L49.2695 56.9414C48.6992 55.1914 47.6172 54.3164 46.0234 54.3164C45.0078 54.3164 44.168 54.668 43.5039 55.3711C42.8477 56.0742 42.5195 56.9688 42.5195 58.0547C42.5195 59.1016 42.8438 59.9688 43.4922 60.6562C44.1406 61.3359 44.9609 61.6758 45.9531 61.6758C46.9609 61.6758 47.7617 61.375 48.3555 60.7734C48.957 60.1719 49.3125 59.3086 49.4219 58.1836ZM60.707 50.0039V54.8906C61.4492 54.3516 62.1914 54.082 62.9336 54.082C64.0586 54.082 64.9492 54.4883 65.6055 55.3008C66.2695 56.1133 66.6016 57.2109 66.6016 58.5938V66H62.2188V59.8242C62.2188 59.3242 62.1641 58.9883 62.0547 58.8164C61.9531 58.6445 61.75 58.5586 61.4453 58.5586C60.9531 58.5586 60.707 58.9219 60.707 59.6484V66H56.3242V50.0039H60.707ZM75.6602 61.6172V66.1523C75.3008 66.2148 74.9727 66.2461 74.6758 66.2461C72.918 66.2461 71.4531 65.668 70.2812 64.5117C69.1094 63.3555 68.5234 61.9062 68.5234 60.1641C68.5234 58.4688 69.1133 57.0312 70.293 55.8516C71.4805 54.6719 72.9219 54.082 74.6172 54.082C76.5078 54.082 77.9961 54.6367 79.082 55.7461C80.1758 56.8477 80.7227 58.3555 80.7227 60.2695V66H76.3398V60.5859C76.3398 59.9688 76.1875 59.4766 75.8828 59.1094C75.5859 58.7422 75.1836 58.5586 74.6758 58.5586C74.2148 58.5586 73.8164 58.7266 73.4805 59.0625C73.1445 59.3984 72.9766 59.7969 72.9766 60.2578C72.9766 60.7422 73.1289 61.1406 73.4336 61.4531C73.7383 61.7656 74.125 61.9219 74.5938 61.9219C74.9766 61.9219 75.332 61.8203 75.6602 61.6172ZM87.1797 50.0039V54.4805H89.1484V59.1094H87.1797C87.1797 60.0391 87.3242 60.6797 87.6133 61.0312C87.9102 61.3828 88.4492 61.5586 89.2305 61.5586V66.1641C89.0039 66.1719 88.8359 66.1758 88.7266 66.1758C87.7344 66.1758 86.7969 65.9453 85.9141 65.4844C85.0391 65.0234 84.3359 64.3984 83.8047 63.6094C83.1328 62.6016 82.7969 61.2656 82.7969 59.6016V50.0039H87.1797Z"/>
</mask>
<path d="M49.4219 58.1836L54.4023 58.3125C54.0742 60.8906 53.1797 62.8828 51.7188 64.2891C50.2656 65.6953 48.3672 66.3984 46.0234 66.3984C43.6406 66.3984 41.6445 65.6016 40.0352 64.0078C38.4336 62.4062 37.6328 60.4219 37.6328 58.0547C37.6328 55.6719 38.4492 53.668 40.082 52.043C41.7227 50.418 43.7422 49.6055 46.1406 49.6055C48.5 49.6055 50.4688 50.4023 52.0469 51.9961C53.1406 53.0977 53.9141 54.6328 54.3672 56.6016L49.2695 56.9414C48.6992 55.1914 47.6172 54.3164 46.0234 54.3164C45.0078 54.3164 44.168 54.668 43.5039 55.3711C42.8477 56.0742 42.5195 56.9688 42.5195 58.0547C42.5195 59.1016 42.8438 59.9688 43.4922 60.6562C44.1406 61.3359 44.9609 61.6758 45.9531 61.6758C46.9609 61.6758 47.7617 61.375 48.3555 60.7734C48.957 60.1719 49.3125 59.3086 49.4219 58.1836ZM60.707 50.0039V54.8906C61.4492 54.3516 62.1914 54.082 62.9336 54.082C64.0586 54.082 64.9492 54.4883 65.6055 55.3008C66.2695 56.1133 66.6016 57.2109 66.6016 58.5938V66H62.2188V59.8242C62.2188 59.3242 62.1641 58.9883 62.0547 58.8164C61.9531 58.6445 61.75 58.5586 61.4453 58.5586C60.9531 58.5586 60.707 58.9219 60.707 59.6484V66H56.3242V50.0039H60.707ZM75.6602 61.6172V66.1523C75.3008 66.2148 74.9727 66.2461 74.6758 66.2461C72.918 66.2461 71.4531 65.668 70.2812 64.5117C69.1094 63.3555 68.5234 61.9062 68.5234 60.1641C68.5234 58.4688 69.1133 57.0312 70.293 55.8516C71.4805 54.6719 72.9219 54.082 74.6172 54.082C76.5078 54.082 77.9961 54.6367 79.082 55.7461C80.1758 56.8477 80.7227 58.3555 80.7227 60.2695V66H76.3398V60.5859C76.3398 59.9688 76.1875 59.4766 75.8828 59.1094C75.5859 58.7422 75.1836 58.5586 74.6758 58.5586C74.2148 58.5586 73.8164 58.7266 73.4805 59.0625C73.1445 59.3984 72.9766 59.7969 72.9766 60.2578C72.9766 60.7422 73.1289 61.1406 73.4336 61.4531C73.7383 61.7656 74.125 61.9219 74.5938 61.9219C74.9766 61.9219 75.332 61.8203 75.6602 61.6172ZM87.1797 50.0039V54.4805H89.1484V59.1094H87.1797C87.1797 60.0391 87.3242 60.6797 87.6133 61.0312C87.9102 61.3828 88.4492 61.5586 89.2305 61.5586V66.1641C89.0039 66.1719 88.8359 66.1758 88.7266 66.1758C87.7344 66.1758 86.7969 65.9453 85.9141 65.4844C85.0391 65.0234 84.3359 64.3984 83.8047 63.6094C83.1328 62.6016 82.7969 61.2656 82.7969 59.6016V50.0039H87.1797Z" fill="white"/>
<path d="M49.4219 58.1836L49.4995 55.1846L46.7063 55.1123L46.436 57.8933L49.4219 58.1836ZM54.4023 58.3125L57.3783 58.6913L57.7973 55.3994L54.48 55.3135L54.4023 58.3125ZM51.7188 64.2891L49.6383 62.1277L49.6325 62.1333L51.7188 64.2891ZM40.0352 64.0078L37.9138 66.1291L37.919 66.1343L37.9242 66.1395L40.0352 64.0078ZM40.082 52.043L37.9709 49.9115L37.9658 49.9166L40.082 52.043ZM52.0469 51.9961L49.9151 54.1069L49.918 54.1099L52.0469 51.9961ZM54.3672 56.6016L54.5667 59.5949L58.0807 59.3607L57.2908 55.9287L54.3672 56.6016ZM49.2695 56.9414L46.4172 57.871L47.1403 60.09L49.4691 59.9348L49.2695 56.9414ZM43.5039 55.3711L41.3229 53.3112L41.3168 53.3177L41.3107 53.3241L43.5039 55.3711ZM43.4922 60.6562L41.3098 62.7147L41.3156 62.7209L41.3216 62.7271L43.4922 60.6562ZM48.3555 60.7734L46.2341 58.6521L46.2272 58.659L46.2203 58.666L48.3555 60.7734ZM49.3443 61.1826L54.3247 61.3115L54.48 55.3135L49.4995 55.1846L49.3443 61.1826ZM51.4263 57.9337C51.1599 60.0271 50.4814 61.3161 49.6383 62.1277L53.7992 66.4505C55.8779 64.4496 56.9885 61.7541 57.3783 58.6913L51.4263 57.9337ZM49.6325 62.1333C48.8279 62.9119 47.7219 63.3984 46.0234 63.3984V69.3984C49.0125 69.3984 51.7034 68.4787 53.805 66.4449L49.6325 62.1333ZM46.0234 63.3984C44.3855 63.3984 43.1621 62.8823 42.1461 61.8762L37.9242 66.1395C40.127 68.3208 42.8957 69.3984 46.0234 69.3984V63.3984ZM42.1565 61.8865C41.1452 60.8752 40.6328 59.6662 40.6328 58.0547H34.6328C34.6328 61.1775 35.722 63.9373 37.9138 66.1291L42.1565 61.8865ZM40.6328 58.0547C40.6328 56.4393 41.1525 55.2101 42.1983 54.1694L37.9658 49.9166C35.7459 52.1259 34.6328 54.9044 34.6328 58.0547H40.6328ZM42.1932 54.1744C43.2483 53.1293 44.4988 52.6055 46.1406 52.6055V46.6055C42.9856 46.6055 40.197 47.7066 37.9709 49.9115L42.1932 54.1744ZM46.1406 52.6055C47.7456 52.6055 48.9322 53.1143 49.9151 54.1069L54.1786 49.8852C52.0053 47.6904 49.2544 46.6055 46.1406 46.6055V52.6055ZM49.918 54.1099C50.5155 54.7116 51.0788 55.6895 51.4436 57.2744L57.2908 55.9287C56.7493 53.5762 55.7657 51.4837 54.1757 49.8823L49.918 54.1099ZM54.1676 53.6082L49.07 53.9481L49.4691 59.9348L54.5667 59.5949L54.1676 53.6082ZM52.1219 56.0118C51.7139 54.76 51.0325 53.5423 49.9167 52.6399C48.7654 51.709 47.4019 51.3164 46.0234 51.3164V57.3164C46.1464 57.3164 46.1938 57.333 46.1904 57.3319C46.182 57.3292 46.1605 57.3188 46.1439 57.3054C46.11 57.278 46.2548 57.3729 46.4172 57.871L52.1219 56.0118ZM46.0234 51.3164C44.2289 51.3164 42.5848 51.9751 41.3229 53.3112L45.6849 57.431C45.7475 57.3648 45.7806 57.3514 45.7902 57.3474C45.8031 57.342 45.8674 57.3164 46.0234 57.3164V51.3164ZM41.3107 53.3241C40.0681 54.6556 39.5195 56.3147 39.5195 58.0547H45.5195C45.5195 57.6228 45.6273 57.4928 45.6971 57.418L41.3107 53.3241ZM39.5195 58.0547C39.5195 59.7773 40.0778 61.4085 41.3098 62.7147L45.6746 58.5978C45.6097 58.529 45.5195 58.4259 45.5195 58.0547H39.5195ZM41.3216 62.7271C42.5708 64.0365 44.1924 64.6758 45.9531 64.6758V58.6758C45.8048 58.6758 45.7477 58.6517 45.742 58.6493C45.7362 58.6469 45.7302 58.644 45.7214 58.6378C45.7122 58.6315 45.6923 58.6164 45.6628 58.5854L41.3216 62.7271ZM45.9531 64.6758C47.5975 64.6758 49.2264 64.1617 50.4906 62.8808L46.2203 58.666C46.2222 58.6641 46.2298 58.6571 46.2416 58.6495C46.2533 58.6419 46.2595 58.64 46.2547 58.6418C46.2458 58.6451 46.1596 58.6758 45.9531 58.6758V64.6758ZM50.4768 62.8948C51.7112 61.6604 52.2534 60.0622 52.4078 58.4739L46.436 57.8933C46.404 58.2224 46.3443 58.4232 46.2992 58.5326C46.2773 58.5859 46.259 58.617 46.249 58.6323C46.2393 58.6472 46.2342 58.6521 46.2341 58.6521L50.4768 62.8948ZM60.707 50.0039H63.707V47.0039H60.707V50.0039ZM60.707 54.8906H57.707V60.7774L62.47 57.3179L60.707 54.8906ZM65.6055 55.3008L63.2716 57.1858L63.2771 57.1926L63.2826 57.1993L65.6055 55.3008ZM66.6016 66V69H69.6016V66H66.6016ZM62.2188 66H59.2188V69H62.2188V66ZM62.0547 58.8164L59.4719 60.3426L59.4971 60.3852L59.5237 60.427L62.0547 58.8164ZM60.707 66V69H63.707V66H60.707ZM56.3242 66H53.3242V69H56.3242V66ZM56.3242 50.0039V47.0039H53.3242V50.0039H56.3242ZM57.707 50.0039V54.8906H63.707V50.0039H57.707ZM62.47 57.3179C62.6501 57.1872 62.7752 57.1291 62.8444 57.104C62.9083 57.0808 62.9335 57.082 62.9336 57.082V51.082C61.4215 51.082 60.076 51.6412 58.944 52.4633L62.47 57.3179ZM62.9336 57.082C63.1304 57.082 63.2001 57.1161 63.2003 57.1162C63.2036 57.1177 63.2065 57.1191 63.2127 57.1241C63.2196 57.1294 63.24 57.1466 63.2716 57.1858L67.9393 53.4158C66.665 51.8381 64.8849 51.082 62.9336 51.082V57.082ZM63.2826 57.1993C63.3865 57.3264 63.6016 57.6813 63.6016 58.5938H69.6016C69.6016 56.7406 69.1526 54.9002 67.9283 53.4023L63.2826 57.1993ZM63.6016 58.5938V66H69.6016V58.5938H63.6016ZM66.6016 63H62.2188V69H66.6016V63ZM65.2188 66V59.8242H59.2188V66H65.2188ZM65.2188 59.8242C65.2188 59.4802 65.201 59.0976 65.1388 58.7152C65.0841 58.3796 64.9575 57.7902 64.5857 57.2058L59.5237 60.427C59.3798 60.2008 59.3068 60.007 59.2718 59.8984C59.2352 59.7851 59.2211 59.706 59.2167 59.6793C59.2092 59.6328 59.2188 59.6682 59.2188 59.8242H65.2188ZM64.6375 57.2902C63.7483 55.7855 62.211 55.5586 61.4453 55.5586V61.5586C61.3392 61.5586 61.0378 61.547 60.6573 61.3859C60.2325 61.2063 59.7822 60.8676 59.4719 60.3426L64.6375 57.2902ZM61.4453 55.5586C60.3457 55.5586 59.1641 56.0322 58.4078 57.1485C57.7929 58.0562 57.707 59.0404 57.707 59.6484H63.707C63.707 59.5299 63.7442 59.9692 63.3754 60.5136C63.1648 60.8244 62.8532 61.1185 62.4468 61.3185C62.0538 61.5119 61.6923 61.5586 61.4453 61.5586V55.5586ZM57.707 59.6484V66H63.707V59.6484H57.707ZM60.707 63H56.3242V69H60.707V63ZM59.3242 66V50.0039H53.3242V66H59.3242ZM56.3242 53.0039H60.707V47.0039H56.3242V53.0039ZM75.6602 61.6172H78.6602V56.2317L74.0811 59.0664L75.6602 61.6172ZM75.6602 66.1523L76.1742 69.108L78.6602 68.6756V66.1523H75.6602ZM70.293 55.8516L68.1786 53.7232L68.1716 53.7302L70.293 55.8516ZM79.082 55.7461L76.9382 57.8446L76.9457 57.8523L76.9532 57.8599L79.082 55.7461ZM80.7227 66V69H83.7227V66H80.7227ZM76.3398 66H73.3398V69H76.3398V66ZM75.8828 59.1094L73.5499 60.9955L73.5619 61.0104L73.5741 61.0251L75.8828 59.1094ZM72.6602 61.6172V66.1523H78.6602V61.6172H72.6602ZM75.1461 63.1967C74.9197 63.2361 74.7666 63.2461 74.6758 63.2461V69.2461C75.1787 69.2461 75.6819 69.1936 76.1742 69.108L75.1461 63.1967ZM74.6758 63.2461C73.6476 63.2461 72.9581 62.9384 72.3883 62.3762L68.1742 66.6472C69.9482 68.3976 72.1884 69.2461 74.6758 69.2461V63.2461ZM72.3883 62.3762C71.8238 61.8192 71.5234 61.1557 71.5234 60.1641H65.5234C65.5234 62.6568 66.395 64.8917 68.1742 66.6472L72.3883 62.3762ZM71.5234 60.1641C71.5234 59.25 71.8073 58.5798 72.4143 57.9729L68.1716 53.7302C66.4192 55.4827 65.5234 57.6875 65.5234 60.1641H71.5234ZM72.4073 57.9799C73.0247 57.3665 73.7027 57.082 74.6172 57.082V51.082C72.141 51.082 69.9362 51.9773 68.1787 53.7233L72.4073 57.9799ZM74.6172 57.082C75.8889 57.082 76.5357 57.4335 76.9382 57.8446L81.2259 53.6475C79.4565 51.84 77.1267 51.082 74.6172 51.082V57.082ZM76.9532 57.8599C77.3648 58.2744 77.7227 58.9518 77.7227 60.2695H83.7227C83.7227 57.7591 82.9868 55.4209 81.2109 53.6323L76.9532 57.8599ZM77.7227 60.2695V66H83.7227V60.2695H77.7227ZM80.7227 63H76.3398V69H80.7227V63ZM79.3398 66V60.5859H73.3398V66H79.3398ZM79.3398 60.5859C79.3398 59.4778 79.0602 58.2406 78.1915 57.1937L73.5741 61.0251C73.4556 60.8822 73.3906 60.7407 73.3597 60.641C73.3314 60.5495 73.3398 60.5205 73.3398 60.5859H79.3398ZM78.2157 57.2232C77.3018 56.0928 76.0112 55.5586 74.6758 55.5586V61.5586C74.5635 61.5586 74.3567 61.5368 74.113 61.4256C73.8629 61.3114 73.6735 61.1484 73.5499 60.9955L78.2157 57.2232ZM74.6758 55.5586C73.3923 55.5586 72.2384 56.0619 71.3591 56.9412L75.6018 61.1838C75.5228 61.2628 75.3884 61.3681 75.1966 61.449C75.0031 61.5306 74.8188 61.5586 74.6758 61.5586V55.5586ZM71.3591 56.9412C70.4799 57.8204 69.9766 58.9743 69.9766 60.2578H75.9766C75.9766 60.4009 75.9485 60.5851 75.8669 60.7787C75.7861 60.9704 75.6808 61.1048 75.6018 61.1838L71.3591 56.9412ZM69.9766 60.2578C69.9766 61.4309 70.3725 62.6109 71.2856 63.5474L75.5816 59.3588C75.708 59.4884 75.8197 59.6568 75.893 59.8485C75.9641 60.0345 75.9766 60.183 75.9766 60.2578H69.9766ZM71.2856 63.5474C72.1997 64.485 73.3826 64.9219 74.5938 64.9219V58.9219C74.697 58.9219 74.8707 58.9402 75.076 59.0231C75.2858 59.1079 75.4576 59.2316 75.5816 59.3588L71.2856 63.5474ZM74.5938 64.9219C75.5392 64.9219 76.4408 64.6622 77.2392 64.168L74.0811 59.0664C74.1417 59.0288 74.2238 58.9896 74.3233 58.9611C74.423 58.9326 74.5164 58.9219 74.5938 58.9219V64.9219ZM87.1797 50.0039H90.1797V47.0039H87.1797V50.0039ZM87.1797 54.4805H84.1797V57.4805H87.1797V54.4805ZM89.1484 54.4805H92.1484V51.4805H89.1484V54.4805ZM89.1484 59.1094V62.1094H92.1484V59.1094H89.1484ZM87.1797 59.1094V56.1094H84.1797V59.1094H87.1797ZM87.6133 61.0312L85.296 62.9366L85.3085 62.9518L85.3212 62.9668L87.6133 61.0312ZM89.2305 61.5586H92.2305V58.5586H89.2305V61.5586ZM89.2305 66.1641L89.3339 69.1623L92.2305 69.0624V66.1641H89.2305ZM85.9141 65.4844L84.5158 68.1386L84.5256 68.1437L85.9141 65.4844ZM83.8047 63.6094L81.3085 65.2735L81.3161 65.2848L83.8047 63.6094ZM82.7969 50.0039V47.0039H79.7969V50.0039H82.7969ZM84.1797 50.0039V54.4805H90.1797V50.0039H84.1797ZM87.1797 57.4805H89.1484V51.4805H87.1797V57.4805ZM86.1484 54.4805V59.1094H92.1484V54.4805H86.1484ZM89.1484 56.1094H87.1797V62.1094H89.1484V56.1094ZM84.1797 59.1094C84.1797 60.1278 84.2928 61.7164 85.296 62.9366L89.9306 59.1259C90.0635 59.2876 90.1363 59.4291 90.1726 59.5121C90.2086 59.5945 90.2173 59.6392 90.2145 59.6269C90.212 59.6159 90.2026 59.5689 90.1942 59.4775C90.1858 59.387 90.1797 59.2657 90.1797 59.1094H84.1797ZM85.3212 62.9668C86.4837 64.3435 88.1595 64.5586 89.2305 64.5586V58.5586C89.0453 58.5586 89.05 58.5354 89.1703 58.5746C89.3081 58.6195 89.6186 58.7561 89.9054 59.0957L85.3212 62.9668ZM86.2305 61.5586V66.1641H92.2305V61.5586H86.2305ZM89.1271 63.1658C88.9067 63.1734 88.7816 63.1758 88.7266 63.1758V69.1758C88.8903 69.1758 89.1011 69.1703 89.3339 69.1623L89.1271 63.1658ZM88.7266 63.1758C88.2198 63.1758 87.7584 63.0631 87.3026 62.825L84.5256 68.1437C85.8353 68.8276 87.249 69.1758 88.7266 69.1758V63.1758ZM87.3123 62.8301C86.858 62.5908 86.5363 62.295 86.2932 61.9339L81.3161 65.2848C82.1355 66.5019 83.2201 67.4561 84.5158 68.1386L87.3123 62.8301ZM86.3008 61.9453C86.0592 61.5829 85.7969 60.8881 85.7969 59.6016H79.7969C79.7969 61.6432 80.2064 63.6203 81.3085 65.2735L86.3008 61.9453ZM85.7969 59.6016V50.0039H79.7969V59.6016H85.7969ZM82.7969 53.0039H87.1797V47.0039H82.7969V53.0039Z" fill="#3C3C3B" mask="url(#path-7-outside-1_134_2)"/>
<defs>
<clipPath id="clip0_134_2">
<rect width="92" height="54" fill="white"/>
</clipPath>
</defs>
</svg>
