<?xml version="1.0" encoding="UTF-8"?>
<svg id="Calque_2" data-name="Calque 2" xmlns="http://www.w3.org/2000/svg" viewBox="0 0 129.17 80.74">
  <defs>
    <style>
      .cls-1 {
        fill: #fff;
      }

      .cls-2 {
        fill: #77b82a;
      }

      .cls-3 {
        fill: #3b8533;
      }
    </style>
  </defs>
  <g id="Calque_1-2" data-name="Calque 1">
    <g>
      <g>
        <path class="cls-1" d="M42.33,39.76v28.8c0,3.59-1.08,6.52-3.25,8.79-2.17,2.27-4.97,3.4-8.41,3.4-4.14,0-7.31-1.88-9.49-5.65-1.35,2.03-2.79,3.48-4.34,4.35-1.54.87-3.45,1.3-5.71,1.3-3.59,0-6.35-1.13-8.26-3.4-1.91-2.27-2.87-5.53-2.87-9.79v-27.8h11.89v26.02c0,1.29.1,2.14.31,2.55s.62.62,1.25.62c1.17,0,1.76-.99,1.76-2.96v-26.22h11.89v26.02c0,1.25.11,2.09.32,2.52.21.43.63.64,1.26.64,1.17,0,1.76-1.05,1.76-3.16v-26.02h11.89Z"/>
        <path class="cls-1" d="M61.44,39.76v39.99h-11.89v-39.99h11.89Z"/>
        <path class="cls-1" d="M68.61,39.76h11.89v23.76c0,1.86.3,3.09.89,3.71.6.62,1.77.92,3.53.92h.62v11.6h-3.16c-4.34,0-7.72-1.26-10.14-3.79-2.42-2.53-3.63-6.04-3.63-10.53v-25.66Z"/>
        <path class="cls-1" d="M108.52,38.76c5.66,0,10.52,2.06,14.58,6.18,4.05,4.12,6.08,9.05,6.08,14.79s-2.04,10.8-6.12,14.88-9.04,6.12-14.88,6.12-10.75-2.05-14.85-6.15-6.15-9.05-6.15-14.85,2.07-10.82,6.2-14.88c4.13-4.06,9.18-6.09,15.16-6.09ZM108.16,50.54c-2.44,0-4.52.9-6.24,2.7-1.72,1.8-2.58,3.97-2.58,6.5s.86,4.71,2.59,6.5c1.73,1.8,3.8,2.7,6.23,2.7s4.55-.89,6.25-2.68c1.71-1.79,2.56-3.96,2.56-6.52s-.85-4.73-2.56-6.52c-1.71-1.79-3.79-2.68-6.25-2.68Z"/>
      </g>
      <circle class="cls-2" cx="108.16" cy="9.72" r="9.72"/>
      <path class="cls-3" d="M124.25,37.87c0,1.45-.19,2.86-.56,4.2-.19-.21-.39-.42-.59-.63-4.06-4.12-8.92-6.18-14.58-6.18-5.98,0-11.03,2.03-15.16,6.09-.25.25-.49.49-.72.74-.37-1.34-.56-2.76-.56-4.22,0-8.89,7.2-16.09,16.09-16.09s16.08,7.2,16.08,16.09Z"/>
    </g>
  </g>
</svg>